<svg width="722" height="209" viewBox="0 0 722 209" fill="none" xmlns="http://www.w3.org/2000/svg">
<rect width="111.775" height="250" transform="matrix(1 0 -0.5547 0.83205 146.273 0)" fill="#0E0E0E"/>
<rect width="111.775" height="250" transform="matrix(1 0 -0.5547 0.83205 300.723 0)" fill="#0E0E0E"/>
<rect width="111.775" height="250" transform="matrix(1 0 -0.5547 0.83205 455.173 0)" fill="#0E0E0E"/>
<rect width="111.775" height="250" transform="matrix(1 0 -0.5547 0.83205 609.622 0)" fill="#0E0E0E"/>
<path d="M50.6761 131.999L122.787 23.832H166.318C174.65 23.832 180.787 25.2933 184.729 28.2157C188.731 31.103 190.503 35.205 190.048 40.5218C189.651 45.8034 187.071 52.018 182.305 59.1657C177.517 66.3487 171.817 72.5281 165.206 77.704C158.618 82.8448 151.41 86.7883 143.581 89.5348C135.788 92.2812 127.653 93.6544 119.177 93.6544H90.0307L102.284 75.2745H127.659C132.112 75.2745 136.211 74.6759 139.954 73.4788C143.697 72.2816 147.085 70.4859 150.118 68.0916C153.187 65.6973 155.907 62.722 158.278 59.1657C160.672 55.5743 161.954 52.5462 162.125 50.0814C162.331 47.6167 161.367 45.7505 159.231 44.483C157.154 43.1802 153.871 42.5288 149.381 42.5288H133.65L74.0037 131.999H50.6761ZM143.077 82.7744L137.683 131.999H111.931L117.918 82.7744H143.077Z" fill="#FAFAFA"/>
<path d="M204.428 131.999L276.539 23.832H351.41L338.84 42.6872H287.461L270.278 68.4613H317.805L305.235 87.3165H257.708L240.49 113.143H292.086L279.516 131.999H204.428Z" fill="#FAFAFA"/>
<path d="M358.18 131.999L430.291 23.832H453.669L423.916 68.4613H471.373L501.126 23.832H524.449L452.338 131.999H429.015L458.803 87.3165H411.346L381.558 131.999H358.18Z" fill="#FAFAFA"/>
<path d="M550.991 131.999H511.932L584.598 23H623.979C635.062 23 643.148 25.1821 648.237 29.5463C653.349 33.875 655.349 40.102 654.236 48.2272C653.159 56.3524 648.848 66.0743 641.302 77.3929C633.733 88.7469 625.058 98.5042 615.278 106.665C605.533 114.826 595.171 121.088 584.192 125.452C573.248 129.816 562.181 131.999 550.991 131.999ZM548.391 112.253H563.186C570.073 112.253 576.669 111.047 582.976 108.634C589.343 106.186 595.413 102.407 601.186 97.2979C607.019 92.1531 612.644 85.5181 618.061 77.3929C623.43 69.3386 626.617 62.7568 627.62 57.6475C628.659 52.5382 627.633 48.7772 624.543 46.3644C621.453 43.9517 616.465 42.7454 609.579 42.7454H594.73L548.391 112.253Z" fill="#FAFAFA"/>
</svg>
