<svg width="240" height="240" viewBox="0 0 240 240" fill="none" xmlns="http://www.w3.org/2000/svg">
<path d="M130.28 20C141.53 20.03 147.24 20.09 152.17 20.23L154.11 20.3C156.35 20.38 158.56 20.48 161.23 20.6C171.87 21.1 179.13 22.78 185.5 25.25C192.1 27.79 197.66 31.23 203.22 36.78C208.307 41.7773 212.242 47.8247 214.75 54.5C217.22 60.87 218.9 68.13 219.4 78.78C219.52 81.44 219.62 83.65 219.7 85.9L219.76 87.84C219.91 92.76 219.97 98.47 219.99 109.72L220 117.18V130.28C220.024 137.574 219.947 144.868 219.77 152.16L219.71 154.1C219.63 156.35 219.53 158.56 219.41 161.22C218.91 171.87 217.21 179.12 214.75 185.5C212.242 192.175 208.307 198.223 203.22 203.22C198.223 208.307 192.175 212.242 185.5 214.75C179.13 217.22 171.87 218.9 161.23 219.4L154.11 219.7L152.17 219.76C147.24 219.9 141.53 219.97 130.28 219.99L122.82 220H109.73C102.432 220.026 95.1351 219.949 87.8398 219.77L85.8998 219.71C83.5259 219.62 81.1526 219.517 78.7798 219.4C68.1398 218.9 60.8798 217.22 54.4998 214.75C47.8281 212.241 41.7843 208.306 36.7898 203.22C31.6993 198.224 27.7609 192.176 25.2498 185.5C22.7798 179.13 21.0998 171.87 20.5998 161.22L20.2998 154.1L20.2498 152.16C20.0655 144.868 19.9821 137.574 19.9998 130.28V109.72C19.9721 102.426 20.0455 95.132 20.2198 87.84L20.2898 85.9C20.3698 83.65 20.4698 81.44 20.5898 78.78C21.0898 68.13 22.7698 60.88 25.2398 54.5C27.7568 47.822 31.7021 41.7744 36.7998 36.78C41.7914 31.6955 47.8317 27.7607 54.4998 25.25C60.8798 22.78 68.1298 21.1 78.7798 20.6C81.4398 20.48 83.6598 20.38 85.8998 20.3L87.8398 20.24C95.1318 20.0623 102.426 19.9857 109.72 20.01L130.28 20ZM120 70C106.739 70 94.0213 75.2678 84.6445 84.6447C75.2677 94.0215 69.9998 106.739 69.9998 120C69.9998 133.261 75.2677 145.979 84.6445 155.355C94.0213 164.732 106.739 170 120 170C133.261 170 145.978 164.732 155.355 155.355C164.732 145.979 170 133.261 170 120C170 106.739 164.732 94.0215 155.355 84.6447C145.978 75.2678 133.261 70 120 70ZM120 90C123.939 89.9993 127.841 90.7747 131.481 92.2817C135.121 93.7887 138.428 95.998 141.214 98.7833C144.001 101.569 146.211 104.875 147.719 108.515C149.228 112.154 150.004 116.055 150.005 119.995C150.005 123.935 149.23 127.836 147.723 131.476C146.216 135.116 144.007 138.423 141.222 141.21C138.436 143.996 135.129 146.206 131.49 147.714C127.85 149.223 123.949 149.999 120.01 150C112.053 150 104.423 146.839 98.7966 141.213C93.1705 135.587 90.0098 127.956 90.0098 120C90.0098 112.044 93.1705 104.413 98.7966 98.7868C104.423 93.1607 112.053 90 120.01 90M172.51 55C169.195 55 166.015 56.317 163.671 58.6612C161.327 61.0054 160.01 64.1848 160.01 67.5C160.01 70.8152 161.327 73.9946 163.671 76.3388C166.015 78.683 169.195 80 172.51 80C175.825 80 179.004 78.683 181.349 76.3388C183.693 73.9946 185.01 70.8152 185.01 67.5C185.01 64.1848 183.693 61.0054 181.349 58.6612C179.004 56.317 175.825 55 172.51 55Z" fill="#0B0C10"/>
</svg>
