<svg width="240" height="240" viewBox="0 0 240 240" fill="none" xmlns="http://www.w3.org/2000/svg">
<path fill-rule="evenodd" clip-rule="evenodd" d="M45 15C37.0435 15 29.4129 18.1607 23.7868 23.7868C18.1607 29.4129 15 37.0435 15 45V195C15 202.956 18.1607 210.587 23.7868 216.213C29.4129 221.839 37.0435 225 45 225H195C202.956 225 210.587 221.839 216.213 216.213C221.839 210.587 225 202.956 225 195V45C225 37.0435 221.839 29.4129 216.213 23.7868C210.587 18.1607 202.956 15 195 15H45ZM61.53 79.455C66.284 79.455 70.8433 77.5665 74.2049 74.2049C77.5665 70.8433 79.455 66.284 79.455 61.53C79.455 56.776 77.5665 52.2167 74.2049 48.8551C70.8433 45.4935 66.284 43.605 61.53 43.605C56.776 43.605 52.2167 45.4935 48.8551 48.8551C45.4935 52.2167 43.605 56.776 43.605 61.53C43.605 66.284 45.4935 70.8433 48.8551 74.2049C52.2167 77.5665 56.776 79.455 61.53 79.455ZM76.53 192.195V93.51H46.53V192.195H76.53ZM96.45 93.51H126.45V106.725C130.875 99.795 140.595 90.465 158.67 90.465C180.24 90.465 191.955 104.76 191.955 131.955C191.955 133.26 192.075 139.215 192.075 139.215V192.18H162.075V139.23C162.075 131.955 160.545 117.66 144.375 117.66C128.19 117.66 126.825 135.63 126.45 147.39V192.18H96.45V93.51Z" fill="#0B0C10"/>
</svg>
